<?xml version="1.0" encoding="UTF-8" standalone="no"?>
<!-- Creator: CorelDRAW -->
<svg
   xmlns:dc="http://purl.org/dc/elements/1.1/"
   xmlns:cc="http://creativecommons.org/ns#"
   xmlns:rdf="http://www.w3.org/1999/02/22-rdf-syntax-ns#"
   xmlns:svg="http://www.w3.org/2000/svg"
   xmlns="http://www.w3.org/2000/svg"
   xmlns:xlink="http://www.w3.org/1999/xlink"
   xmlns:sodipodi="http://sodipodi.sourceforge.net/DTD/sodipodi-0.dtd"
   xmlns:inkscape="http://www.inkscape.org/namespaces/inkscape"
   xml:space="preserve"
   width="283.22754"
   height="206.66298"
   style="fill-rule:evenodd"
   viewBox="0 0 8500 11000"
   id="svg2"
   sodipodi:version="0.32"
   inkscape:version="0.46"
   sodipodi:docname="ivak_satellite.svg"
   inkscape:output_extension="org.inkscape.output.svg.inkscape"
   sodipodi:docbase="C:\Documents and Settings\Ivaylo Kroumov\My Documents\toto-ui-project\icons"
   version="1.0"><sodipodi:namedview
   inkscape:window-height="932"
   inkscape:window-width="1279"
   inkscape:pageshadow="2"
   inkscape:pageopacity="0.0"
   guidetolerance="10.0"
   gridtolerance="10.0"
   objecttolerance="10.0"
   borderopacity="1.0"
   bordercolor="#666666"
   pagecolor="#ffffff"
   id="base"
   inkscape:zoom="1.4013766"
   inkscape:cx="52.382615"
   inkscape:cy="93.134686"
   inkscape:window-x="0"
   inkscape:window-y="0"
   inkscape:current-layer="svg2"
   width="1052.3622px"
   height="744.09449px"
   showguides="true"
   inkscape:guide-bbox="true"
   showgrid="false" /><metadata
   id="metadata53"><rdf:RDF><cc:Work
       rdf:about=""><dc:format>image/svg+xml</dc:format><dc:type
         rdf:resource="http://purl.org/dc/dcmitype/StillImage" /></cc:Work></rdf:RDF></metadata>
 <defs
   id="defs4"><inkscape:perspective
     sodipodi:type="inkscape:persp3d"
     inkscape:vp_x="0 : 69.988052 : 1"
     inkscape:vp_y="0 : 1000 : 0"
     inkscape:vp_z="172.49934 : 69.988052 : 1"
     inkscape:persp3d-origin="86.249672 : 46.658702 : 1"
     id="perspective91" /><linearGradient
     id="linearGradient3482"><stop
       offset="0"
       id="stop3484"
       style="stop-color:#c6c6c6;stop-opacity:1;" /><stop
       offset="1"
       id="stop3486"
       style="stop-color:#1a1a1a;stop-opacity:1;" /></linearGradient><linearGradient
     id="linearGradient3494"><stop
       offset="0"
       id="stop3496"
       style="stop-color:#050101;stop-opacity:1;" /><stop
       offset="1"
       id="stop35889"
       style="stop-color:#ffffff;stop-opacity:1;" /></linearGradient><linearGradient
     id="linearGradient3504"><stop
       offset="0"
       id="stop3506"
       style="stop-color:#d9d9d9;stop-opacity:0;" /><stop
       offset="0.62962961"
       id="stop3512"
       style="stop-color:#ffffff;stop-opacity:1;" /><stop
       offset="1"
       id="stop3508"
       style="stop-color:#e9e9e9;stop-opacity:0;" /></linearGradient><linearGradient
     id="linearGradient3528"><stop
       offset="0"
       id="stop3530"
       style="stop-color:#000000;stop-opacity:1;" /><stop
       offset="0.5"
       id="stop3536"
       style="stop-color:#ffffff;stop-opacity:1;" /><stop
       offset="1"
       id="stop3532"
       style="stop-color:#0d0000;stop-opacity:1;" /></linearGradient><linearGradient
     inkscape:collect="always"
     id="linearGradient3998"><stop
       offset="0"
       id="stop4000"
       style="stop-color:#000000;stop-opacity:1;" /><stop
       offset="1"
       id="stop4002"
       style="stop-color:#000000;stop-opacity:0;" /></linearGradient><linearGradient
     id="linearGradient4155"><stop
       offset="0"
       id="stop4157"
       style="stop-color:#ffffff;stop-opacity:1;" /><stop
       offset="1"
       id="stop4159"
       style="stop-color:#040000;stop-opacity:1;" /></linearGradient><linearGradient
     inkscape:collect="always"
     id="linearGradient4112"
     x1="4661.0132"
     x2="4371.8774"
     y1="2161.2021"
     gradientUnits="userSpaceOnUse"
     xlink:href="#linearGradient3891"
     y2="2395.5667" /><linearGradient
     inkscape:collect="always"
     id="linearGradient4110"
     x1="4669.9121"
     x2="4543.5845"
     y1="2297.1133"
     gradientUnits="userSpaceOnUse"
     xlink:href="#linearGradient3882"
     y2="2556.0872" /><radialGradient
     inkscape:collect="always"
     id="radialGradient2499"
     r="353.81644"
     gradientTransform="matrix(0.2626095,2.1140162,1.593363,8.0845685e-2,-3332.4952,-8761.4909)"
     cx="5101.4014"
     cy="3720.0112"
     gradientUnits="userSpaceOnUse"
     xlink:href="#linearGradient3494"
     fy="3650.0562"
     fx="5068.1831" /><linearGradient
     inkscape:collect="always"
     id="linearGradient2486"
     x1="5408.1719"
     x2="5482.5557"
     gradientTransform="matrix(5.4906809e-2,0.9360233,0.9369055,7.2082584e-2,177.43451,-2718.9972)"
     y1="3589.5469"
     gradientUnits="userSpaceOnUse"
     xlink:href="#linearGradient3504"
     y2="3960.4746" /><linearGradient
     inkscape:collect="always"
     id="linearGradient2483"
     x1="5319.2505"
     x2="5371.2402"
     gradientTransform="matrix(0.1538595,0.9491793,1.024268,0.2725302,-672.36786,-3525.0627)"
     y1="3508.0549"
     gradientUnits="userSpaceOnUse"
     xlink:href="#linearGradient3528"
     y2="3569.7737" /><radialGradient
     inkscape:collect="always"
     id="radialGradient2480"
     r="329.35757"
     gradientTransform="matrix(-7.3902627e-2,-0.6736502,-0.5952913,1.1852616e-2,6512.545,5749.8588)"
     cx="5063.1255"
     cy="3747.4917"
     gradientUnits="userSpaceOnUse"
     xlink:href="#linearGradient3482"
     fy="3654.8857"
     fx="5132.6792" /><linearGradient
     inkscape:collect="always"
     id="linearGradient2477"
     x1="4002.8713"
     x2="4002.8713"
     gradientTransform="matrix(0.7063202,0.7078925,0.7078925,-0.7063202,-2472.4527,3092.3304)"
     y1="5251.73"
     gradientUnits="userSpaceOnUse"
     xlink:href="#linearGradient3998"
     y2="4560.9038" /><linearGradient
     id="linearGradient3864"><stop
       offset="0"
       id="stop3866"
       style="stop-color:#51519c;stop-opacity:1;" /><stop
       offset="1"
       id="stop3868"
       style="stop-color:#f3f3f9;stop-opacity:1;" /></linearGradient><linearGradient
     id="linearGradient3874"><stop
       offset="0"
       id="stop3876"
       style="stop-color:#454585;stop-opacity:1;" /><stop
       offset="1"
       id="stop3878"
       style="stop-color:#ffffff;stop-opacity:1;" /></linearGradient><linearGradient
     id="linearGradient3882"><stop
       offset="0"
       id="stop3884"
       style="stop-color:#3a3a63;stop-opacity:1;" /><stop
       offset="1"
       id="stop3887"
       style="stop-color:#babafd;stop-opacity:1;" /></linearGradient><linearGradient
     id="linearGradient3891"><stop
       offset="0"
       id="stop3893"
       style="stop-color:#454585;stop-opacity:1;" /><stop
       offset="1"
       id="stop3895"
       style="stop-color:#babafd;stop-opacity:1;" /></linearGradient><linearGradient
     id="linearGradient3919"><stop
       offset="0"
       id="stop3921"
       style="stop-color:#000000;stop-opacity:1;" /><stop
       offset="0.5"
       id="stop3927"
       style="stop-color:#a1a1a1;stop-opacity:1;" /><stop
       offset="1"
       id="stop3923"
       style="stop-color:#000000;stop-opacity:1;" /></linearGradient><linearGradient
     inkscape:collect="always"
     id="linearGradient4052"><stop
       offset="0"
       id="stop4054"
       style="stop-color:#000000;stop-opacity:1;" /><stop
       offset="1"
       id="stop4056"
       style="stop-color:#000000;stop-opacity:0;" /></linearGradient><linearGradient
     inkscape:collect="always"
     id="linearGradient4138"
     x1="4658.9404"
     x2="4497.8481"
     y1="2288.5483"
     gradientUnits="userSpaceOnUse"
     xlink:href="#linearGradient3874"
     y2="2633.7271" /><linearGradient
     inkscape:collect="always"
     id="linearGradient4136"
     x1="5064.0757"
     x2="4759.6128"
     y1="2318.8877"
     gradientUnits="userSpaceOnUse"
     xlink:href="#linearGradient3864"
     y2="2605.8926" /><linearGradient
     inkscape:collect="always"
     id="linearGradient3276"
     x1="4673.248"
     x2="4786.3569"
     y1="1627.0541"
     gradientUnits="userSpaceOnUse"
     xlink:href="#linearGradient3270"
     y2="1865.58" /><radialGradient
     inkscape:collect="always"
     id="radialGradient2296"
     r="119.15202"
     gradientTransform="matrix(-1.2731013,0.4058656,-0.3707116,-1.1628315,10557.889,3000.3787)"
     cx="3977.5588"
     cy="2415.3887"
     gradientUnits="userSpaceOnUse"
     xlink:href="#linearGradient4155"
     fy="2461.7117"
     fx="3964.4363" /><linearGradient
     inkscape:collect="always"
     id="linearGradient2293"
     x1="4157.4858"
     x2="4079.6199"
     gradientTransform="matrix(0.9396178,0.6789659,-0.6789659,0.9396178,2284.6642,-2975.2049)"
     y1="1786.7518"
     gradientUnits="userSpaceOnUse"
     xlink:href="#linearGradient4052"
     y2="2144.4167" /><linearGradient
     inkscape:collect="always"
     id="linearGradient2280"
     x1="4851.7173"
     x2="4886.1763"
     gradientTransform="matrix(7.7467157e-2,1.15055,-1.1661037,-0.2705756,6242.2061,-3232.4053)"
     y1="1831.2935"
     gradientUnits="userSpaceOnUse"
     xlink:href="#linearGradient3919"
     y2="1800.791" /><linearGradient
     inkscape:collect="always"
     id="linearGradient2263"
     x1="4845.522"
     x2="4875.3574"
     gradientTransform="matrix(-4.8455387e-3,-0.6111797,-0.7024383,5.5690528e-3,5924.4542,4619.9417)"
     y1="1829.5306"
     gradientUnits="userSpaceOnUse"
     xlink:href="#linearGradient3919"
     y2="1800.0723" /><linearGradient
     inkscape:collect="always"
     id="linearGradient2248"
     x1="4845.522"
     x2="4875.3574"
     gradientTransform="matrix(0.842212,-5.8503737e-2,6.7239248e-2,0.9679672,603.63811,369.58796)"
     y1="1829.5306"
     gradientUnits="userSpaceOnUse"
     xlink:href="#linearGradient3919"
     y2="1800.0723" /><linearGradient
     id="linearGradient3270"><stop
       offset="0"
       id="stop3272"
       style="stop-color:#000000;stop-opacity:1;" /><stop
       offset="0.24074075"
       id="stop3278"
       style="stop-color:#fffbfb;stop-opacity:1;" /><stop
       offset="1"
       id="stop3274"
       style="stop-color:#000000;stop-opacity:1;" /></linearGradient></defs>
 




<g
   style="fill-rule:evenodd"
   inkscape:export-ydpi="99"
   inkscape:transform-center-y="-20.894586"
   inkscape:export-filename="C:\Documents and Settings\Ivaylo Kroumov\My Documents\toto-ui-project\com-done.png"
   transform="matrix(7.6073583,-0.2560362,0.2560362,7.6073583,-33360.581,-6684.7966)"
   inkscape:export-xdpi="99"
   id="g6734"><g
     id="g3836"
     transform="matrix(0.8833336,0.1106054,-0.1683495,0.8794927,827.14189,-1015.0079)"><path
       sodipodi:nodetypes="ccccc"
       style="fill:#5e889d;fill-opacity:1;stroke:none;stroke-width:2.78695893"
       id="path3838"
       d="M 4611.2273,2509.8485 L 4887.8217,2346.5111 L 4484.9021,2125.5807 L 4221.8095,2237.5552 L 4611.2273,2509.8485 z" /><path
       sodipodi:nodetypes="cccccccccccccccccccc"
       style="fill:url(#linearGradient4112);fill-opacity:1;fill-rule:nonzero;stroke:none;stroke-width:0.5;stroke-linecap:round;stroke-linejoin:round;marker:none;marker-start:none;marker-mid:none;marker-end:none;stroke-miterlimit:4;stroke-dashoffset:0;stroke-opacity:1;visibility:visible;display:inline;overflow:visible;enable-background:accumulate"
       d="M 4647.508,2233.9323 L 4487.0725,2144.4978 L 4395.6915,2185.6253 L 4551.1384,2286.9774 L 4647.508,2233.9323 z M 4265.8767,2242.9583 L 4426.6266,2355.815 L 4533.0935,2296.9891 L 4375.8511,2194.3275 L 4265.8767,2242.9583 z M 4550.2777,2308.111 L 4445.1548,2367.512 L 4612.2562,2483.5726 L 4723.1835,2420.3185 L 4550.2777,2308.111 z M 4739.8717,2409.702 L 4849.366,2346.4131 L 4665.0148,2243.5527 L 4568.1456,2297.4072 L 4739.8717,2409.702 z"
       id="path3840" /></g><g
     transform="matrix(0.5772466,0.2604684,-0.5618505,0.8680548,2924.3052,-1967.377)"
     id="g3842"><path
       sodipodi:nodetypes="ccccccc"
       style="fill:#3c687e;fill-opacity:1;stroke:none;stroke-width:2.78695893"
       d="M 4611.2273,2509.8485 L 4887.8217,2346.5111 L 4512.6305,2126.8505 C 4503.2239,2122.4676 4496.6449,2121.1105 4483.6802,2123.6977 L 4237.3028,2230.8189 C 4230.9759,2235.0547 4231.0208,2240.5481 4235.079,2246.8337 L 4611.2273,2509.8485 z"
       id="path3844" /><path
       sodipodi:nodetypes="cccccccccccccccccccc"
       style="fill:url(#linearGradient4110);fill-opacity:1;fill-rule:nonzero;stroke:none;stroke-width:0.5;stroke-linecap:round;stroke-linejoin:round;marker:none;marker-start:none;marker-mid:none;marker-end:none;stroke-miterlimit:4;stroke-dashoffset:0;stroke-opacity:1;visibility:visible;display:inline;overflow:visible;enable-background:accumulate"
       id="path3846"
       d="M 4651.262,2231.7575 L 4497.8802,2139.0789 L 4395.6915,2185.6253 L 4551.1384,2286.9774 L 4651.262,2231.7575 z M 4265.8767,2242.9583 L 4426.6266,2355.815 L 4533.0935,2296.9891 L 4375.8511,2194.3275 L 4265.8767,2242.9583 z M 4550.2777,2308.111 L 4445.1548,2367.512 L 4612.2562,2483.5726 L 4723.1835,2420.3185 L 4550.2777,2308.111 z M 4739.8717,2409.702 L 4849.366,2346.4131 L 4668.7688,2241.3779 L 4568.1456,2297.4072 L 4739.8717,2409.702 z" /></g><path
     sodipodi:nodetypes="cccccc"
     style="fill:url(#linearGradient2263);fill-opacity:1;fill-rule:nonzero;stroke:none;stroke-width:0.5;stroke-linecap:round;stroke-linejoin:round;marker:none;marker-start:none;marker-mid:none;marker-end:none;stroke-miterlimit:4;stroke-dasharray:none;stroke-dashoffset:0;stroke-opacity:1;visibility:visible;display:inline;overflow:visible;enable-background:accumulate"
     id="path3957"
     d="M 4604.7745,1647.8093 C 4588.1485,1632.0539 4603.7025,1619.6196 4618.5619,1634.3296 L 4646.7258,1655.2893 C 4664.6651,1666.0917 4640.8763,1684.1031 4628.8214,1678.6083 L 4602.3424,1649.5743 L 4604.7745,1647.8093 z" /><path
     sodipodi:nodetypes="ccccscc"
     style="fill:url(#linearGradient3276);fill-opacity:1;stroke:none;stroke-width:3"
     d="M 4640.5313,1960.4508 C 4698.8222,1925.769 4690.9504,1799.5445 4634.7191,1746.6622 C 4590.7333,1704.942 4532.5375,1693.2924 4491.9028,1715.9549 L 4829.0865,1566.6503 C 4873.741,1543.1082 4946.7107,1535.3982 4995.9006,1587.8144 C 5027.9564,1621.9727 5043.269,1713.9723 4976.2714,1757.9514 L 4640.5313,1960.4508 z"
     id="path2423" /><path
     sodipodi:nodetypes="ccss"
     style="fill:url(#radialGradient2296);fill-opacity:1;stroke:none;stroke-width:3.01050806"
     id="path2425"
     d="M 4483.2517,1722.7779 C 4527.6522,1687.9598 4584.979,1697.449 4633.5391,1743.5078 C 4694.1088,1802.0804 4708.673,1931.6391 4627.0863,1968.5556 C 4506.4803,2023.1274 4380.3785,1803.4495 4483.2517,1722.7779 z" /><path
     sodipodi:nodetypes="ccccscc"
     style="fill:url(#linearGradient2293);fill-opacity:1;fill-rule:evenodd;stroke:none;stroke-width:3"
     id="path4050"
     d="M 4640.5314,1960.4508 C 4698.8222,1925.769 4690.9504,1799.5445 4634.7192,1746.6622 C 4590.7333,1704.942 4532.5375,1693.2924 4491.9028,1715.9549 L 4829.0865,1566.6503 C 4873.741,1543.1082 4946.7107,1535.3982 4995.9006,1587.8144 C 5027.9565,1621.9727 5043.269,1713.9723 4976.2714,1757.9514 L 4640.5314,1960.4508 z" /><path
     sodipodi:nodetypes="ccccc"
     style="fill:url(#linearGradient2280);fill-opacity:1;fill-rule:nonzero;stroke:none;stroke-width:0.5;stroke-linecap:round;stroke-linejoin:round;marker:none;marker-start:none;marker-mid:none;marker-end:none;stroke-miterlimit:4;stroke-dasharray:none;stroke-dashoffset:0;stroke-opacity:1;visibility:visible;display:inline;overflow:visible;enable-background:accumulate"
     d="M 4436.2529,1884.7741 C 4457.4366,1894.4375 4461.8856,1910.2007 4471.4089,1936.9797 L 4555.2262,1891.5517 C 4581.0251,1868.0239 4549.157,1820.549 4521.7584,1828.0797 L 4436.2529,1884.7741 z"
     id="path4032" /><g
     transform="matrix(1.0194323,-3.8178536e-2,-9.8241892e-3,1.3943144,408.96826,-1010.5292)"
     id="g3828"><path
       sodipodi:nodetypes="ccccc"
       style="fill:#5e889d;fill-opacity:1;stroke:none;stroke-width:2.78695893"
       d="M 4611.2273,2509.8485 L 4887.8217,2346.5111 L 4484.9021,2125.5807 L 4221.8095,2237.5552 L 4611.2273,2509.8485 z"
       id="path3446" /><path
       sodipodi:nodetypes="cccccccccccccccccccc"
       style="fill:url(#linearGradient4138);fill-opacity:1;fill-rule:nonzero;stroke:none;stroke-width:0.5;stroke-linecap:round;stroke-linejoin:round;marker:none;marker-start:none;marker-mid:none;marker-end:none;stroke-miterlimit:4;stroke-dashoffset:0;stroke-opacity:1;visibility:visible;display:inline;overflow:visible;enable-background:accumulate"
       id="path2836"
       d="M 4654.3203,2238.2867 L 4487.0725,2144.4978 L 4395.6915,2185.6253 L 4554.5435,2288.7403 L 4654.3203,2238.2867 z M 4265.8767,2242.9583 L 4426.6266,2355.815 L 4535.3695,2300.3739 L 4375.8511,2194.3275 L 4265.8767,2242.9583 z M 4553.6828,2309.8739 L 4445.1548,2367.512 L 4612.2562,2483.5726 L 4723.1835,2420.3185 L 4553.6828,2309.8739 z M 4739.8717,2409.702 L 4849.366,2346.4131 L 4675.23,2248.8414 L 4572.6909,2301.6911 L 4739.8717,2409.702 z" /></g><g
     transform="matrix(1.1291682,4.0925127e-2,0.1607225,1.5417158,-523.93526,-1744.4469)"
     id="g3832"><path
       sodipodi:nodetypes="ccccccc"
       style="fill:#6f95a9;fill-opacity:1;stroke:none;stroke-width:2.78695893"
       id="path3824"
       d="M 5022.1978,2610.863 L 5283.6946,2426.4527 C 5288.114,2420.2964 5281.4111,2415.7345 5274.6284,2412.3135 L 4895.089,2350.4045 L 4618.9437,2514.7536 L 5000.3287,2614.2252 C 5008.4052,2615.5277 5015.6387,2614.2337 5022.1978,2610.863 z" /><path
       sodipodi:nodetypes="cccccccccccccccccccc"
       style="fill:url(#linearGradient4136);fill-opacity:1;fill-rule:nonzero;stroke:none;stroke-width:0.5;stroke-linecap:round;stroke-linejoin:round;marker:none;marker-start:none;marker-mid:none;marker-end:none;stroke-miterlimit:4;stroke-dashoffset:0;stroke-opacity:1;visibility:visible;display:inline;overflow:visible;enable-background:accumulate"
       d="M 5053.2245,2392.4065 L 4896.3679,2364.711 L 4800.3405,2423.5592 L 4955.0634,2458.6871 L 5053.2245,2392.4065 z M 4663.9804,2506.2963 L 4823.5762,2548.9749 L 4936.0059,2471.8001 L 4779.5029,2436.1568 L 4663.9804,2506.2963 z M 4953.1142,2475.6184 L 4842.0374,2552.8592 L 5008.0022,2596.2332 L 5125.2409,2514.2751 L 4953.1142,2475.6184 z M 5142.934,2501.0765 L 5251.5102,2425.4816 L 5071.9387,2395.8002 L 4972.0246,2462.0103 L 5142.934,2501.0765 z"
       id="path3826" /></g><path
     sodipodi:nodetypes="ccccccc"
     style="fill:url(#linearGradient2248);fill-opacity:1;fill-rule:nonzero;stroke:none;stroke-width:0.5;stroke-linecap:round;stroke-linejoin:round;marker:none;marker-start:none;marker-mid:none;marker-end:none;stroke-miterlimit:4;stroke-dasharray:none;stroke-dashoffset:0;stroke-opacity:1;visibility:visible;display:inline;overflow:visible;enable-background:accumulate"
     id="path3917"
     d="M 4835.3129,1867.8208 C 4858.7837,1889.0374 4876.4224,1868.5233 4854.5797,1849.6282 L 4822.7114,1813.0771 C 4805.9216,1789.5236 4781.4474,1823.838 4790.3002,1839.8535 L 4825.643,1866.0439 L 4829.4717,1864.1915 L 4835.3129,1867.8208 z" /><g
     inkscape:transform-center-x="12.425904"
     inkscape:transform-center-y="16.374099"
     transform="matrix(0.996332,-8.5572145e-2,8.5572145e-2,0.996332,263.61495,-30.403749)"
     id="g2501"><path
       sodipodi:nodetypes="ccscs"
       style="fill:url(#radialGradient2499);fill-opacity:1;stroke:none;stroke-width:3"
       d="M 4151.2682,2803.346 C 4246.1251,2776.0034 4177.3243,2589.5822 4002.9843,2399.7013 C 3827.8001,2210.1125 3605.0589,2071.6424 3517.4073,2113.8679 C 3437.8238,2152.2066 3492.03,2326.2363 3666.1255,2516.3283 C 3795.9077,2655.7436 4026.3045,2839.3669 4151.2682,2803.346 z"
       id="path3830" /><path
       sodipodi:nodetypes="csss"
       style="opacity:0.5;fill:url(#linearGradient2486);fill-opacity:1;stroke:none;stroke-width:3;stroke-opacity:1"
       id="path3856"
       d="M 4154.7499,2795.956 C 4249.6069,2768.6134 4181.6369,2613.6323 4023.8823,2412.076 C 3848.4437,2187.9254 3631.2599,2506.1199 3766.9485,2608.9839 C 3880.2915,2694.9081 4029.7862,2831.9768 4154.7499,2795.956 z" /><path
       sodipodi:nodetypes="ccccc"
       style="fill:url(#linearGradient2483);fill-opacity:1;stroke:none;stroke-width:3"
       d="M 3950.6408,2371.4261 C 3955.0309,2366.0048 3923.7194,2333.6578 3916.426,2338.9823 L 3617.2443,2660.2225 C 3605.5557,2673.3064 3617.9751,2684.2545 3629.7407,2671.5016 L 3950.6408,2371.4261 z"
       id="path3860" /><path
       sodipodi:nodetypes="csccc"
       style="fill:url(#radialGradient2480);fill-opacity:1;stroke:none;stroke-width:3"
       d="M 3517.2531,2113.9854 C 3642.2124,2046.6655 3851.5191,2118.1264 3986.6586,2237.1448 C 4126.7104,2360.4892 4236.0071,2590.4488 4189.3553,2766.8425 C 4212.493,2697.1313 4141.3308,2550.3802 4002.9843,2399.7013 C 3827.8001,2210.1125 3606.8166,2075.1901 3517.2531,2113.9854 z"
       id="path3864" /><path
       sodipodi:nodetypes="ccccc"
       style="fill:url(#linearGradient2477);fill-opacity:1;stroke:none;stroke-width:3"
       id="path3996"
       d="M 3950.6408,2371.4261 C 3955.0309,2366.0048 3923.7194,2333.6578 3916.426,2338.9823 L 3617.2443,2660.2225 C 3605.5557,2673.3064 3617.9751,2684.2545 3629.7407,2671.5016 L 3950.6408,2371.4261 z" /></g></g></svg>